HIERARCHY
ROOT Hips
{
	OFFSET 0.000000 0.000000 0.000000
	CHANNELS 6 Xposition Yposition Zposition Xrotation Yrotation Zrotation
	JOINT Chest
	{
		OFFSET 0.000000 0.009282 11.569106
		CHANNELS 3 Xrotation Yrotation Zrotation
		JOINT Chest2
		{
			OFFSET 0.000000 -0.016863 9.269641
			CHANNELS 3 Xrotation Yrotation Zrotation
			JOINT Chest3
			{
				OFFSET 0.000000 0.000000 8.374491
				CHANNELS 3 Xrotation Yrotation Zrotation
				JOINT Chest4
				{
					OFFSET 0.000000 0.000000 8.374493
					CHANNELS 3 Xrotation Yrotation Zrotation
					JOINT Neck
					{
						OFFSET 0.000000 -0.000001 12.152554
						CHANNELS 3 Xrotation Yrotation Zrotation
						JOINT Head
						{
							OFFSET 0.000000 -0.040100 7.802319
							CHANNELS 3 Xrotation Yrotation Zrotation
							End Site
							{
								OFFSET 0.000000 -0.020946 14.853096
							}
						}
					}
					JOINT RightCollar
					{
						OFFSET -2.894404 0.000000 6.791374
						CHANNELS 3 Xrotation Yrotation Zrotation
						JOINT RightShoulder
						{
							OFFSET -13.574684 0.000000 0.000000
							CHANNELS 3 Xrotation Yrotation Zrotation
							JOINT RightElbow
							{
								OFFSET -23.923903 0.000000 0.000000
								CHANNELS 3 Xrotation Yrotation Zrotation
								JOINT RightWrist
								{
									OFFSET -19.846718 -0.012765 0.000000
									CHANNELS 3 Xrotation Yrotation Zrotation
									End Site
									{
										OFFSET -14.973145 0.000000 0.000000
									}
								}
							}
						}
					}
					JOINT LeftCollar
					{
						OFFSET 2.894404 0.000000 6.791374
						CHANNELS 3 Xrotation Yrotation Zrotation
						JOINT LeftShoulder
						{
							OFFSET 13.574684 0.000000 0.000000
							CHANNELS 3 Xrotation Yrotation Zrotation
							JOINT LeftElbow
							{
								OFFSET 23.923903 0.000000 0.000000
								CHANNELS 3 Xrotation Yrotation Zrotation
								JOINT LeftWrist
								{
									OFFSET 19.846718 -0.012765 0.000000
									CHANNELS 3 Xrotation Yrotation Zrotation
									End Site
									{
										OFFSET 14.973145 0.000000 0.000000
									}
								}
							}
						}
					}
				}
			}
		}
	}
	JOINT RightHip
	{
		OFFSET -9.469263 -0.004642 0.045487
		CHANNELS 3 Xrotation Yrotation Zrotation
		JOINT RightKnee
		{
			OFFSET 0.000000 -0.002666 -40.478676
			CHANNELS 3 Xrotation Yrotation Zrotation
			JOINT RightAnkle
			{
				OFFSET 0.000000 -0.049110 -35.224068
				CHANNELS 3 Xrotation Yrotation Zrotation
				JOINT RightToe
				{
					OFFSET 0.000000 -12.539530 -6.151390
					CHANNELS 3 Xrotation Yrotation Zrotation
					End Site
					{
						OFFSET 0.000000 -5.044995 -1.291870
					}
				}
			}
		}
	}
	JOINT LeftHip
	{
		OFFSET 9.469263 -0.004642 0.045487
		CHANNELS 3 Xrotation Yrotation Zrotation
		JOINT LeftKnee
		{
			OFFSET 0.000000 -0.002666 -40.478676
			CHANNELS 3 Xrotation Yrotation Zrotation
			JOINT LeftAnkle
			{
				OFFSET 0.000000 -0.049110 -35.224068
				CHANNELS 3 Xrotation Yrotation Zrotation
				JOINT LeftToe
				{
					OFFSET 0.000000 -12.539530 -6.151390
					CHANNELS 3 Xrotation Yrotation Zrotation
					End Site
					{
						OFFSET 0.000000 -5.044995 -1.291870
					}
				}
			}
		}
	}
}
MOTION
Frames: 5
Frame Time: 0.016667
-14.690007 -2.632704 82.351051 3.058172 6.528494 -106.973255 6.141132 -0.204101 0.539786 2.718072 -0.071245 0.111690 2.718072 -0.071245 0.111683 2.038541 -0.053932 0.083449 19.095346 -0.613832 -1.166243 -0.725459 -0.749298 -2.326769 -13.202027 -10.492867 -0.958095 20.196830 -38.921901 -7.326056 67.407192 23.308207 71.457364 -62.207300 45.542335 86.672594 -7.199809 7.420460 -1.957040 20.123279 41.661244 10.821302 61.151018 -9.754944 -66.235882 -32.468544 -32.598884 -85.430449 10.050885 -6.050345 -12.444582 1.575102 -2.433876 -0.438088 -6.368861 4.963127 0.309209 -0.118266 0.200604 -0.099644 -3.379395 -9.913785 29.087754 -0.114868 4.858333 23.513259 15.676493 -4.899582 9.380459 -0.063368 -0.013842 0.281550 
-14.690007 -2.632704 82.351051 3.058172 6.528494 -106.973255 6.141132 -0.204101 0.539786 2.718072 -0.071245 0.111690 2.718072 -0.071245 0.111683 2.038541 -0.053932 0.083449 19.095346 -0.613832 -1.166243 -0.725459 -0.749298 -2.326769 -13.202027 -10.492867 -0.958095 20.196830 -38.921901 -7.326056 67.407192 23.308207 71.457364 -62.207300 45.542335 86.672594 -7.199809 7.420460 -1.957040 20.123279 41.661244 10.821302 61.151018 -9.754944 -66.235882 -32.468544 -32.598884 -85.430449 10.050885 -6.050345 -12.444582 1.575102 -2.433876 -0.438088 -6.368861 4.963127 0.309209 -0.118266 0.200604 -0.099644 -3.379395 -9.913785 29.087754 -0.114868 4.858333 23.513259 15.676493 -4.899582 9.380459 -0.063368 -0.013842 0.281550 
-14.663443 -2.655488 82.357529 2.992546 6.464762 -106.866677 6.128291 -0.173228 0.525635 2.726550 -0.061187 0.109084 2.726551 -0.061187 0.109082 2.044902 -0.046379 0.081539 19.289521 -0.635844 -1.145392 -0.365415 -0.799437 -2.294370 -13.193826 -10.492666 -0.969895 20.171505 -38.956551 -7.329099 67.406522 23.320479 71.414914 -62.211904 45.538562 86.688549 -7.196012 7.409978 -1.961343 20.143715 41.639009 10.777500 61.126792 -9.779709 -66.258395 -32.513640 -32.601432 -85.493457 9.930264 -5.922570 -12.624533 1.668513 -2.560652 -0.604829 -6.447859 4.795656 0.509597 -0.101522 0.313458 -0.122252 -3.557323 -9.859263 28.819635 -0.036363 4.796105 23.538539 15.761503 -5.000319 9.393395 -0.096747 0.095725 0.286233 
-14.621477 -2.696047 82.369553 2.870976 6.342728 -106.687828 6.073454 -0.124504 0.446744 2.722212 -0.046707 0.104449 2.722211 -0.046707 0.104441 2.041650 -0.035496 0.078126 19.516323 -0.660035 -1.118051 0.055172 -0.856027 -2.250403 -13.230463 -10.506480 -0.978166 20.182497 -38.992372 -7.343713 67.423003 23.325207 71.347425 -62.216746 45.529221 86.704115 -7.207164 7.411317 -1.965852 20.167534 41.602105 10.755145 61.113725 -9.804396 -66.280354 -32.579135 -32.592993 -85.580132 9.733593 -5.741476 -12.882783 1.757205 -2.714509 -0.788780 -6.557170 4.558700 0.721139 -0.054619 0.457866 -0.141029 -3.836552 -9.806935 28.370719 0.107685 4.763922 23.555755 15.810510 -5.202641 9.430937 -0.089227 0.298656 0.238995 
-14.570007 -2.782282 82.386780 2.711419 6.211685 -106.453436 6.011840 -0.054616 0.331731 2.709625 -0.029782 0.094548 2.709623 -0.029782 0.094548 2.032212 -0.022756 0.070782 19.778365 -0.689189 -1.087551 0.541119 -0.923073 -2.201737 -13.219817 -10.503946 -0.972166 20.138999 -39.057658 -7.352829 67.457332 23.312617 71.259213 -62.202485 45.516695 86.699751 -7.204128 7.407672 -1.959634 20.182362 41.555527 10.733419 61.119702 -9.834623 -66.308358 -32.666090 -32.579808 -85.679546 9.507941 -5.507502 -13.150882 1.845660 -2.862208 -0.988100 -6.692832 4.233738 0.882238 0.022222 0.619712 -0.140543 -4.174604 -9.814114 27.733534 0.345778 4.815571 23.519748 15.795675 -5.532399 9.455390 -0.019469 0.599583 0.137545 
